<mxfile host="app.diagrams.net" agent="Mozilla/5.0 (Windows NT 10.0; Win64; x64) AppleWebKit/537.36 (KHTML, like Gecko) Chrome/138.0.0.0 Safari/537.36" version="28.0.7">
  <diagram name="Página-1" id="FtXKLZvxrsDICQGV6yp0">
    <mxGraphModel dx="2253" dy="785" grid="1" gridSize="10" guides="1" tooltips="1" connect="1" arrows="1" fold="1" page="1" pageScale="1" pageWidth="827" pageHeight="1169" math="0" shadow="0">
      <root>
        <mxCell id="0" />
        <mxCell id="1" parent="0" />
        <mxCell id="VtswJPi7JtSJUFrtr2q_-1" value="Tela de Login" style="ellipse;whiteSpace=wrap;html=1;" parent="1" vertex="1">
          <mxGeometry x="330" y="10" width="120" height="80" as="geometry" />
        </mxCell>
        <mxCell id="VtswJPi7JtSJUFrtr2q_-2" value="Entrar(Deverá vir o token de autenticação no response)" style="ellipse;whiteSpace=wrap;html=1;" parent="1" vertex="1">
          <mxGeometry x="10" y="150" width="120" height="80" as="geometry" />
        </mxCell>
        <mxCell id="VtswJPi7JtSJUFrtr2q_-3" value="Criar Usuário" style="ellipse;whiteSpace=wrap;html=1;" parent="1" vertex="1">
          <mxGeometry x="640" y="110" width="120" height="80" as="geometry" />
        </mxCell>
        <mxCell id="VtswJPi7JtSJUFrtr2q_-4" value="login(nome usuario)&lt;div&gt;email&lt;/div&gt;&lt;div&gt;senha&lt;/div&gt;&lt;div&gt;administrador/vendedor/atendente&lt;/div&gt;" style="ellipse;whiteSpace=wrap;html=1;" parent="1" vertex="1">
          <mxGeometry x="820" y="230" width="210" height="120" as="geometry" />
        </mxCell>
        <mxCell id="VtswJPi7JtSJUFrtr2q_-8" value="mensagem: usuario criado com sucesso" style="rounded=0;whiteSpace=wrap;html=1;" parent="1" vertex="1">
          <mxGeometry x="865" y="430" width="120" height="60" as="geometry" />
        </mxCell>
        <mxCell id="VtswJPi7JtSJUFrtr2q_-9" value="" style="endArrow=none;html=1;rounded=0;entryX=0.5;entryY=1;entryDx=0;entryDy=0;exitX=0.5;exitY=0;exitDx=0;exitDy=0;" parent="1" source="VtswJPi7JtSJUFrtr2q_-8" target="VtswJPi7JtSJUFrtr2q_-4" edge="1">
          <mxGeometry width="50" height="50" relative="1" as="geometry">
            <mxPoint x="570" y="480" as="sourcePoint" />
            <mxPoint x="620" y="430" as="targetPoint" />
          </mxGeometry>
        </mxCell>
        <mxCell id="VtswJPi7JtSJUFrtr2q_-10" value="Botão de voltar para tela de login" style="ellipse;whiteSpace=wrap;html=1;" parent="1" vertex="1">
          <mxGeometry x="430" y="150" width="120" height="80" as="geometry" />
        </mxCell>
        <mxCell id="VtswJPi7JtSJUFrtr2q_-11" value="" style="endArrow=none;html=1;rounded=0;entryX=0;entryY=1;entryDx=0;entryDy=0;exitX=0.5;exitY=0;exitDx=0;exitDy=0;" parent="1" source="VtswJPi7JtSJUFrtr2q_-10" target="VtswJPi7JtSJUFrtr2q_-3" edge="1">
          <mxGeometry width="50" height="50" relative="1" as="geometry">
            <mxPoint x="470" y="280" as="sourcePoint" />
            <mxPoint x="520" y="230" as="targetPoint" />
          </mxGeometry>
        </mxCell>
        <mxCell id="VtswJPi7JtSJUFrtr2q_-12" value="" style="endArrow=none;html=1;rounded=0;entryX=0;entryY=0.5;entryDx=0;entryDy=0;exitX=0.5;exitY=0;exitDx=0;exitDy=0;" parent="1" source="VtswJPi7JtSJUFrtr2q_-2" target="VtswJPi7JtSJUFrtr2q_-1" edge="1">
          <mxGeometry width="50" height="50" relative="1" as="geometry">
            <mxPoint x="180" y="180" as="sourcePoint" />
            <mxPoint x="230" y="130" as="targetPoint" />
          </mxGeometry>
        </mxCell>
        <mxCell id="VtswJPi7JtSJUFrtr2q_-13" value="" style="endArrow=none;html=1;rounded=0;entryX=1;entryY=0.5;entryDx=0;entryDy=0;exitX=0.5;exitY=0;exitDx=0;exitDy=0;" parent="1" source="VtswJPi7JtSJUFrtr2q_-3" target="VtswJPi7JtSJUFrtr2q_-1" edge="1">
          <mxGeometry width="50" height="50" relative="1" as="geometry">
            <mxPoint x="500" y="140" as="sourcePoint" />
            <mxPoint x="550" y="90" as="targetPoint" />
          </mxGeometry>
        </mxCell>
        <mxCell id="VtswJPi7JtSJUFrtr2q_-14" value="Botão de cadastrar cliente" style="ellipse;whiteSpace=wrap;html=1;" parent="1" vertex="1">
          <mxGeometry y="330" width="120" height="80" as="geometry" />
        </mxCell>
        <mxCell id="VtswJPi7JtSJUFrtr2q_-15" value="Botão de Registrar Atendimento" style="ellipse;whiteSpace=wrap;html=1;" parent="1" vertex="1">
          <mxGeometry x="210" y="310" width="120" height="80" as="geometry" />
        </mxCell>
        <mxCell id="VtswJPi7JtSJUFrtr2q_-16" value="Botão de voltar para tela de login" style="ellipse;whiteSpace=wrap;html=1;" parent="1" vertex="1">
          <mxGeometry x="250" y="150" width="120" height="80" as="geometry" />
        </mxCell>
        <mxCell id="VtswJPi7JtSJUFrtr2q_-20" value="Listagem de cliente&lt;div&gt;(Com Cards e Paginação)&lt;/div&gt;" style="ellipse;whiteSpace=wrap;html=1;" parent="1" vertex="1">
          <mxGeometry x="-180" y="330" width="120" height="80" as="geometry" />
        </mxCell>
        <mxCell id="VtswJPi7JtSJUFrtr2q_-21" value="" style="endArrow=none;html=1;rounded=0;entryX=1;entryY=0.5;entryDx=0;entryDy=0;exitX=0.5;exitY=0;exitDx=0;exitDy=0;" parent="1" source="VtswJPi7JtSJUFrtr2q_-4" target="VtswJPi7JtSJUFrtr2q_-3" edge="1">
          <mxGeometry width="50" height="50" relative="1" as="geometry">
            <mxPoint x="860" y="190" as="sourcePoint" />
            <mxPoint x="910" y="140" as="targetPoint" />
          </mxGeometry>
        </mxCell>
        <mxCell id="VtswJPi7JtSJUFrtr2q_-22" value="" style="endArrow=none;html=1;rounded=0;entryX=1;entryY=1;entryDx=0;entryDy=0;exitX=0.5;exitY=0;exitDx=0;exitDy=0;" parent="1" source="VtswJPi7JtSJUFrtr2q_-15" target="VtswJPi7JtSJUFrtr2q_-2" edge="1">
          <mxGeometry width="50" height="50" relative="1" as="geometry">
            <mxPoint x="170" y="330" as="sourcePoint" />
            <mxPoint x="220" y="280" as="targetPoint" />
          </mxGeometry>
        </mxCell>
        <mxCell id="VtswJPi7JtSJUFrtr2q_-23" value="" style="endArrow=none;html=1;rounded=0;entryX=0.5;entryY=1;entryDx=0;entryDy=0;exitX=0.5;exitY=0;exitDx=0;exitDy=0;" parent="1" source="VtswJPi7JtSJUFrtr2q_-14" target="VtswJPi7JtSJUFrtr2q_-2" edge="1">
          <mxGeometry width="50" height="50" relative="1" as="geometry">
            <mxPoint x="40" y="310" as="sourcePoint" />
            <mxPoint x="90" y="260" as="targetPoint" />
          </mxGeometry>
        </mxCell>
        <mxCell id="VtswJPi7JtSJUFrtr2q_-24" value="" style="endArrow=none;html=1;rounded=0;exitX=1;exitY=0.5;exitDx=0;exitDy=0;entryX=0;entryY=0;entryDx=0;entryDy=0;" parent="1" source="VtswJPi7JtSJUFrtr2q_-2" target="VtswJPi7JtSJUFrtr2q_-16" edge="1">
          <mxGeometry width="50" height="50" relative="1" as="geometry">
            <mxPoint x="190" y="180" as="sourcePoint" />
            <mxPoint x="240" y="130" as="targetPoint" />
          </mxGeometry>
        </mxCell>
        <mxCell id="VtswJPi7JtSJUFrtr2q_-25" value="" style="endArrow=none;html=1;rounded=0;entryX=0;entryY=0.5;entryDx=0;entryDy=0;exitX=0.5;exitY=0;exitDx=0;exitDy=0;" parent="1" source="VtswJPi7JtSJUFrtr2q_-20" target="VtswJPi7JtSJUFrtr2q_-2" edge="1">
          <mxGeometry width="50" height="50" relative="1" as="geometry">
            <mxPoint x="-90" y="300" as="sourcePoint" />
            <mxPoint x="-40" y="250" as="targetPoint" />
          </mxGeometry>
        </mxCell>
        <mxCell id="VtswJPi7JtSJUFrtr2q_-26" value="- nome&lt;div&gt;- email&lt;/div&gt;&lt;div&gt;- telefone&lt;/div&gt;&lt;div&gt;- histórico de atendimento&lt;/div&gt;&lt;div&gt;- botão de excluir usuário(caso seja adm)&lt;/div&gt;" style="rounded=0;whiteSpace=wrap;html=1;" parent="1" vertex="1">
          <mxGeometry x="-180" y="510" width="120" height="120" as="geometry" />
        </mxCell>
        <mxCell id="VtswJPi7JtSJUFrtr2q_-27" value="" style="endArrow=none;html=1;rounded=0;entryX=0.5;entryY=1;entryDx=0;entryDy=0;exitX=0.5;exitY=0;exitDx=0;exitDy=0;" parent="1" source="VtswJPi7JtSJUFrtr2q_-26" target="VtswJPi7JtSJUFrtr2q_-20" edge="1">
          <mxGeometry width="50" height="50" relative="1" as="geometry">
            <mxPoint x="-140" y="490" as="sourcePoint" />
            <mxPoint x="-90" y="440" as="targetPoint" />
          </mxGeometry>
        </mxCell>
        <mxCell id="VtswJPi7JtSJUFrtr2q_-28" value="ao clicar no botão de excluir usuário deverá aparecer uma mensagem de usuário deletado" style="rounded=0;whiteSpace=wrap;html=1;" parent="1" vertex="1">
          <mxGeometry x="-120" y="705" width="120" height="90" as="geometry" />
        </mxCell>
        <mxCell id="VtswJPi7JtSJUFrtr2q_-29" value="" style="endArrow=none;html=1;rounded=0;entryX=1;entryY=0.5;entryDx=0;entryDy=0;exitX=0.5;exitY=0;exitDx=0;exitDy=0;" parent="1" source="VtswJPi7JtSJUFrtr2q_-28" target="VtswJPi7JtSJUFrtr2q_-26" edge="1">
          <mxGeometry width="50" height="50" relative="1" as="geometry">
            <mxPoint x="-10" y="690" as="sourcePoint" />
            <mxPoint x="40" y="640" as="targetPoint" />
          </mxGeometry>
        </mxCell>
        <mxCell id="VtswJPi7JtSJUFrtr2q_-31" value="" style="endArrow=none;html=1;rounded=0;entryX=0;entryY=0.5;entryDx=0;entryDy=0;exitX=0.5;exitY=0;exitDx=0;exitDy=0;" parent="1" source="VtswJPi7JtSJUFrtr2q_-33" target="VtswJPi7JtSJUFrtr2q_-26" edge="1">
          <mxGeometry width="50" height="50" relative="1" as="geometry">
            <mxPoint x="-230" y="710" as="sourcePoint" />
            <mxPoint x="-200" y="710" as="targetPoint" />
          </mxGeometry>
        </mxCell>
        <mxCell id="VtswJPi7JtSJUFrtr2q_-33" value="Histórico de Atendimento" style="ellipse;whiteSpace=wrap;html=1;" parent="1" vertex="1">
          <mxGeometry x="-290" y="710" width="120" height="80" as="geometry" />
        </mxCell>
        <mxCell id="VtswJPi7JtSJUFrtr2q_-35" value="" style="endArrow=none;html=1;rounded=0;entryX=0.45;entryY=0.975;entryDx=0;entryDy=0;entryPerimeter=0;exitX=0.5;exitY=0;exitDx=0;exitDy=0;" parent="1" source="VtswJPi7JtSJUFrtr2q_-36" target="VtswJPi7JtSJUFrtr2q_-33" edge="1">
          <mxGeometry width="50" height="50" relative="1" as="geometry">
            <mxPoint x="-236" y="860" as="sourcePoint" />
            <mxPoint x="-160" y="860" as="targetPoint" />
          </mxGeometry>
        </mxCell>
        <mxCell id="VtswJPi7JtSJUFrtr2q_-36" value="&lt;div&gt;- Dados do Cliente&lt;/div&gt;- Listagem de atendimento(Com Cards e Paginação)" style="rounded=0;whiteSpace=wrap;html=1;" parent="1" vertex="1">
          <mxGeometry x="-300" y="850" width="120" height="80" as="geometry" />
        </mxCell>
        <mxCell id="VtswJPi7JtSJUFrtr2q_-37" value="Cada Card terá ID e descrição" style="ellipse;whiteSpace=wrap;html=1;" parent="1" vertex="1">
          <mxGeometry x="-300" y="990" width="120" height="80" as="geometry" />
        </mxCell>
        <mxCell id="VtswJPi7JtSJUFrtr2q_-38" value="" style="endArrow=none;html=1;rounded=0;entryX=0.5;entryY=1;entryDx=0;entryDy=0;exitX=0.5;exitY=0;exitDx=0;exitDy=0;" parent="1" source="VtswJPi7JtSJUFrtr2q_-37" target="VtswJPi7JtSJUFrtr2q_-36" edge="1">
          <mxGeometry width="50" height="50" relative="1" as="geometry">
            <mxPoint x="-270" y="1000" as="sourcePoint" />
            <mxPoint x="-220" y="950" as="targetPoint" />
          </mxGeometry>
        </mxCell>
        <mxCell id="VtswJPi7JtSJUFrtr2q_-39" value="Tela de Registrar Atendimento" style="ellipse;whiteSpace=wrap;html=1;" parent="1" vertex="1">
          <mxGeometry x="360" y="410" width="120" height="80" as="geometry" />
        </mxCell>
        <mxCell id="VtswJPi7JtSJUFrtr2q_-40" value="" style="endArrow=none;html=1;rounded=0;entryX=1;entryY=0.5;entryDx=0;entryDy=0;exitX=0.5;exitY=0;exitDx=0;exitDy=0;" parent="1" source="VtswJPi7JtSJUFrtr2q_-39" target="VtswJPi7JtSJUFrtr2q_-15" edge="1">
          <mxGeometry width="50" height="50" relative="1" as="geometry">
            <mxPoint x="310" y="430" as="sourcePoint" />
            <mxPoint x="360" y="380" as="targetPoint" />
          </mxGeometry>
        </mxCell>
        <mxCell id="VtswJPi7JtSJUFrtr2q_-41" value="Registrar atendimento(id deverá estar na base)&lt;div&gt;Descrição&lt;/div&gt;" style="rounded=0;whiteSpace=wrap;html=1;" parent="1" vertex="1">
          <mxGeometry x="360" y="590" width="120" height="60" as="geometry" />
        </mxCell>
        <mxCell id="VtswJPi7JtSJUFrtr2q_-42" value="" style="endArrow=none;html=1;rounded=0;entryX=0.5;entryY=1;entryDx=0;entryDy=0;exitX=0.5;exitY=0;exitDx=0;exitDy=0;" parent="1" source="VtswJPi7JtSJUFrtr2q_-41" target="VtswJPi7JtSJUFrtr2q_-39" edge="1">
          <mxGeometry width="50" height="50" relative="1" as="geometry">
            <mxPoint x="310" y="600" as="sourcePoint" />
            <mxPoint x="360" y="550" as="targetPoint" />
          </mxGeometry>
        </mxCell>
        <mxCell id="VtswJPi7JtSJUFrtr2q_-43" value="Ao Salvar o atendimento deverá ser salvo na base e mostrado no histórico de atendimento" style="rounded=0;whiteSpace=wrap;html=1;" parent="1" vertex="1">
          <mxGeometry x="360" y="670" width="120" height="80" as="geometry" />
        </mxCell>
        <mxCell id="VtswJPi7JtSJUFrtr2q_-44" value="" style="endArrow=none;html=1;rounded=0;entryX=0.5;entryY=1;entryDx=0;entryDy=0;exitX=0.5;exitY=0;exitDx=0;exitDy=0;" parent="1" source="VtswJPi7JtSJUFrtr2q_-43" target="VtswJPi7JtSJUFrtr2q_-41" edge="1">
          <mxGeometry width="50" height="50" relative="1" as="geometry">
            <mxPoint x="260" y="750" as="sourcePoint" />
            <mxPoint x="310" y="700" as="targetPoint" />
          </mxGeometry>
        </mxCell>
        <mxCell id="VtswJPi7JtSJUFrtr2q_-45" value="Mostrar mensagem de Atendimento registrado com sucesso" style="ellipse;whiteSpace=wrap;html=1;" parent="1" vertex="1">
          <mxGeometry x="340" y="770" width="160" height="90" as="geometry" />
        </mxCell>
        <mxCell id="VtswJPi7JtSJUFrtr2q_-47" value="Voltar a listagem de clientes" style="ellipse;whiteSpace=wrap;html=1;" parent="1" vertex="1">
          <mxGeometry x="560" y="580" width="120" height="80" as="geometry" />
        </mxCell>
        <mxCell id="VtswJPi7JtSJUFrtr2q_-48" value="" style="endArrow=none;html=1;rounded=0;entryX=0.5;entryY=1;entryDx=0;entryDy=0;exitX=0.5;exitY=0;exitDx=0;exitDy=0;" parent="1" source="VtswJPi7JtSJUFrtr2q_-45" target="VtswJPi7JtSJUFrtr2q_-43" edge="1">
          <mxGeometry width="50" height="50" relative="1" as="geometry">
            <mxPoint x="300" y="880" as="sourcePoint" />
            <mxPoint x="350" y="830" as="targetPoint" />
          </mxGeometry>
        </mxCell>
        <mxCell id="VtswJPi7JtSJUFrtr2q_-49" value="" style="endArrow=none;html=1;rounded=0;entryX=1;entryY=0.5;entryDx=0;entryDy=0;exitX=0.5;exitY=0;exitDx=0;exitDy=0;" parent="1" source="VtswJPi7JtSJUFrtr2q_-47" target="VtswJPi7JtSJUFrtr2q_-39" edge="1">
          <mxGeometry width="50" height="50" relative="1" as="geometry">
            <mxPoint x="520" y="580" as="sourcePoint" />
            <mxPoint x="570" y="530" as="targetPoint" />
          </mxGeometry>
        </mxCell>
        <mxCell id="VtswJPi7JtSJUFrtr2q_-50" value="Tela de cadastrar cliente(se o usuário for administrador ou vendedor)" style="ellipse;whiteSpace=wrap;html=1;" parent="1" vertex="1">
          <mxGeometry x="90" y="420" width="120" height="80" as="geometry" />
        </mxCell>
        <mxCell id="VtswJPi7JtSJUFrtr2q_-51" value="" style="endArrow=none;html=1;rounded=0;entryX=0.5;entryY=1;entryDx=0;entryDy=0;exitX=0.5;exitY=0;exitDx=0;exitDy=0;" parent="1" source="VtswJPi7JtSJUFrtr2q_-50" target="VtswJPi7JtSJUFrtr2q_-14" edge="1">
          <mxGeometry width="50" height="50" relative="1" as="geometry">
            <mxPoint x="80" y="510" as="sourcePoint" />
            <mxPoint x="130" y="460" as="targetPoint" />
          </mxGeometry>
        </mxCell>
        <mxCell id="VtswJPi7JtSJUFrtr2q_-52" value="Cadastrar Cliente&lt;div&gt;-nome&lt;/div&gt;&lt;div&gt;-email&lt;/div&gt;&lt;div&gt;-telefone(formatado)&lt;/div&gt;&lt;div&gt;-nenhum deles deverá se repetir&lt;/div&gt;" style="rounded=0;whiteSpace=wrap;html=1;" parent="1" vertex="1">
          <mxGeometry x="40" y="530" width="120" height="90" as="geometry" />
        </mxCell>
        <mxCell id="VtswJPi7JtSJUFrtr2q_-53" value="" style="endArrow=none;html=1;rounded=0;entryX=0.5;entryY=1;entryDx=0;entryDy=0;exitX=0.5;exitY=0;exitDx=0;exitDy=0;" parent="1" source="VtswJPi7JtSJUFrtr2q_-52" target="VtswJPi7JtSJUFrtr2q_-50" edge="1">
          <mxGeometry width="50" height="50" relative="1" as="geometry">
            <mxPoint x="90" y="570" as="sourcePoint" />
            <mxPoint x="140" y="520" as="targetPoint" />
          </mxGeometry>
        </mxCell>
        <mxCell id="VtswJPi7JtSJUFrtr2q_-54" value="voltar a listagem de clientes" style="ellipse;whiteSpace=wrap;html=1;" parent="1" vertex="1">
          <mxGeometry x="210" y="530" width="120" height="80" as="geometry" />
        </mxCell>
        <mxCell id="VtswJPi7JtSJUFrtr2q_-56" value="" style="endArrow=none;html=1;rounded=0;entryX=1;entryY=0.5;entryDx=0;entryDy=0;exitX=0.5;exitY=0;exitDx=0;exitDy=0;" parent="1" source="VtswJPi7JtSJUFrtr2q_-54" target="VtswJPi7JtSJUFrtr2q_-50" edge="1">
          <mxGeometry width="50" height="50" relative="1" as="geometry">
            <mxPoint x="250" y="530" as="sourcePoint" />
            <mxPoint x="300" y="480" as="targetPoint" />
          </mxGeometry>
        </mxCell>
        <mxCell id="VtswJPi7JtSJUFrtr2q_-57" value="Ao cadastrar cliente ele deverá ser salvo na base e mostrado na listagem" style="rounded=0;whiteSpace=wrap;html=1;" parent="1" vertex="1">
          <mxGeometry x="40" y="680" width="120" height="60" as="geometry" />
        </mxCell>
        <mxCell id="VtswJPi7JtSJUFrtr2q_-58" value="" style="endArrow=none;html=1;rounded=0;entryX=0.5;entryY=1;entryDx=0;entryDy=0;exitX=0.5;exitY=0;exitDx=0;exitDy=0;" parent="1" source="VtswJPi7JtSJUFrtr2q_-57" target="VtswJPi7JtSJUFrtr2q_-52" edge="1">
          <mxGeometry width="50" height="50" relative="1" as="geometry">
            <mxPoint x="210" y="720" as="sourcePoint" />
            <mxPoint x="260" y="670" as="targetPoint" />
          </mxGeometry>
        </mxCell>
        <mxCell id="VtswJPi7JtSJUFrtr2q_-59" value="Mostrar mensagem de cliente cadastrado com sucesso" style="rounded=0;whiteSpace=wrap;html=1;" parent="1" vertex="1">
          <mxGeometry x="40" y="830" width="120" height="60" as="geometry" />
        </mxCell>
        <mxCell id="VtswJPi7JtSJUFrtr2q_-60" value="" style="endArrow=none;html=1;rounded=0;entryX=0.5;entryY=1;entryDx=0;entryDy=0;exitX=0.5;exitY=0;exitDx=0;exitDy=0;" parent="1" source="VtswJPi7JtSJUFrtr2q_-59" target="VtswJPi7JtSJUFrtr2q_-57" edge="1">
          <mxGeometry width="50" height="50" relative="1" as="geometry">
            <mxPoint x="90" y="820" as="sourcePoint" />
            <mxPoint x="140" y="770" as="targetPoint" />
          </mxGeometry>
        </mxCell>
      </root>
    </mxGraphModel>
  </diagram>
</mxfile>
